# AST/ASF file generated using VICON BodyLanguage
# -----------------------------------------------
:version 1.10
:name VICON
:units
  mass 1.0
  length 0.45
  angle deg
:documentation
   .ast/.asf automatically generated from VICON data using
   VICON BodyBuilder and BodyLanguage model FoxedUp or BRILLIANT.MOD
:root
   order TX TY TZ RX RY RZ
   axis XYZ
   position 0 0 0  
   orientation 0 0 0 
:bonedata
  begin
     id 1 
     name lhipjoint
     direction 0.630082 -0.636569 0.44472 
     length 2.82754 
     axis 0 0 0  XYZ
  end
  begin
     id 2 
     name lfemur
     direction 0.34202 -0.939693 0  
     length 7.26371  
     axis 0 0 20  XYZ
    dof rx ry rz
    limits (-160.0 20.0)
           (-70.0 70.0)
           (-60.0 70.0)
  end
  begin
     id 3 
     name ltibia
     direction 0.34202 -0.939693 0   
     length 7.88616   
     axis 0 0 20   XYZ
    dof rx
    limits (-10.0 170.0)
  end
  begin
     id 4 
     name lfoot
     direction 0.0603448 -0.165796 0.984312   
     length 1.77861   
     axis -90 7.62852e-016 20   XYZ
    dof rx rz
    limits (-45.0 90.0)
           (-70.0 20.0)
  end
  begin
     id 5 
     name ltoes
     direction 1.53577e-011 -4.21876e-011 1   
     length 0.902235   
     axis -90 7.62852e-016 20   XYZ
    dof rx
    limits (-90.0 20.0)
  end
  begin
     id 6 
     name rhipjoint
     direction -0.656778 -0.61817 0.431866   
     length 2.9117  
     axis 0 0 0  XYZ 
  end
  begin
     id 7 
     name rfemur
     direction -0.34202 -0.939693 0   
     length 6.81603   
     axis 0 0 -20   XYZ
    dof rx ry rz
    limits (-160.0 20.0)
           (-70.0 70.0)
           (-70.0 60.0)
  end
  begin
     id 8 
     name rtibia
     direction -0.34202 -0.939693 0   
     length 8.05997   
     axis 0 0 -20   XYZ
    dof rx
    limits (-10.0 170.0)
 end
 begin
     id 9 
     name rfoot
     direction -0.0862404 -0.236944 0.967688   
     length 1.84899  
     axis -90 -7.62852e-016 -20   XYZ
    dof rx rz
    limits (-45.0 90.0)
           (-20.0 70.0)
  end
  begin
     id 10 
     name rtoes
     direction -1.53561e-011 -4.21798e-011 1   
     length 0.931579   
     axis -90 -7.62852e-016 -20   XYZ
    dof rx
    limits (-90.0 20.0)
  end
  begin
     id 11 
     name lowerback
     direction -0.0110203 0.991769 -0.127564   
     length 2.05686   
     axis 0 0 0   XYZ
    dof rx ry rz
    limits (-20.0 45.0)
           (-30.0 30.0)
           (-30.0 30.0)
  end
  begin
     id 12 
     name upperback
     direction 0.0109719 0.99993 -0.00432479   
     length 2.06234   
     axis 0 0 0   XYZ
    dof rx ry rz
    limits (-20.0 45.0)
           (-30.0 30.0)
           (-30.0 30.0)
  end
  begin
     id 13 
     name thorax
     direction 0.0173308 0.998351 0.0547306   
     length 2.09856   
     axis 0 0 0   XYZ
    dof rx ry rz
    limits (-20.0 45.0)
           (-30.0 30.0)
           (-30.0 30.0)
  end
  begin
     id 14 
     name lowerneck
     direction -0.0311736 0.989033 0.144366   
     length 1.98151   
     axis 0 0 0   XYZ
    dof rx ry rz
    limits (-20.0 45.0)
           (-30.0 30.0)
           (-30.0 30.0)
  end
  begin
     id 15 
     name upperneck
     direction 0.0421057 0.975772 -0.214698   
     length 2.01457   
     axis 0 0 0   XYZ
    dof rx ry rz
    limits (-20.0 45.0)
           (-30.0 30.0)
           (-30.0 30.0)
  end
  begin
     id 16
     name head
     direction 0.0136911 0.995958 -0.0887718  
     length 2.03562  
     axis 0 0 0   XYZ
    dof rx ry rz
    limits (-20.0 45.0)
           (-30.0 30.0)
           (-30.0 30.0)
  end
  begin
     id 17 
     name lclavicle
     direction 0.915335 0.396201 0.0720134  
     length 4.16217  
     axis 0 0 0   XYZ
    dof ry rz
    limits (-20.0 10.0)
           (0.0 20.0)
  end
  begin
     id 18 
     name lhumerus
     direction 1 -4.48965e-011 6.383e-018   
     length 4.93042   
     axis -180 -30 -90   XYZ
    dof rx ry rz
    limits (-60.0 90.0)
           (-90.0 90.0)
           (-90.0 90.0)
  end
  begin
     id 19
     name lradius
     direction 1 -4.48972e-011 8.8689e-027   
     length 3.68177   
     axis -180 -30 -90   XYZ
    dof rx
    limits (-10.0 170.0)
  end
  begin
     id 20
     name lwrist
     direction 1 -4.48953e-011 1.17971e-026   
     length 1.84089   
     axis -7.69454e-015 90 90   XYZ
    dof ry
    limits (-180.0 0.0)
 end
  begin
     id 21 
     name lhand
     direction 1 -4.49027e-011 2.35802e-026   
     length 0.721479   
     axis -1.50533e-014 90 90   XYZ
    dof rx rz
    limits (-90.0 90.0)
           (-45.0 45.0)
  end
  begin
     id 22 
     name lfingers
     direction 1 -4.48915e-011 4.72027e-026   
     length 0.581675   
     axis -3.01059e-014 90 90   XYZ
    dof rx
    limits (0.0 90.0)
  end
  begin
     id 23
     name lthumb
     direction 0.707107 -6.34948e-011 0.707107   
     length 0.835172   
     axis -90 45 -5.12164e-014   XYZ
    dof rx rz
    limits (-45.0 45.0)
           (-45.0 45.0)
  end
  begin
     id 24 
     name rclavicle
     direction -0.882781 0.469197 0.0234974   
     length 3.95647  
     axis 0 0 0   XYZ 
    dof ry rz
    limits (-10.0 20.0)
           (-20.0 0.0)
  end
  begin
     id 25 
     name rhumerus
     direction -1 -4.48965e-011 -1.54906e-018  
     length 5.07905   
     axis -180 30 90   XYZ
    dof rx ry rz
    limits (-90.0 60.0)
           (-90.0 90.0)
           (-90.0 90.0)
  end
  begin
     id 26 
     name rradius
     direction -1 -4.48972e-011 5.47489e-027   
     length 3.54394   
     axis -180 30 90   XYZ
    dof rx
    limits (-10.0 170.0)
  end
  begin
     id 27 
     name rwrist
     direction -1 -4.48955e-011 1.17969e-026   
     length 1.77197   
     axis -7.69454e-015 -90 -90   XYZ
    dof ry
    limits (-180.0 0.0)
  end
  begin
     id 28
     name rhand
     direction -1 -4.48982e-011 2.35888e-026   
     length 0.681156   
     axis -1.50533e-014 -90 -90   XYZ
    dof rx rz
    limits (-90.0 90.0)
           (-45.0 45.0)
  end
  begin
     id 29
     name rfingers
     direction -1 -4.48955e-011 4.71877e-026   
     length 0.549165   
     axis -3.01059e-014 -90 -90   XYZ
    dof rx
    limits (0.0 90.0)
  end
  begin
     id 30
     name rthumb
     direction -0.707107 -6.3491e-011 0.707107   
     length 0.788495   
     axis -90 -45 5.12164e-014   XYZ
    dof rx rz
    limits (-45.0 45.0)
           (-45.0 45.0)
  end
:hierarchy
  begin
    root lhipjoint rhipjoint lowerback
    lhipjoint lfemur
    lfemur ltibia
    ltibia lfoot
    lfoot ltoes
    rhipjoint rfemur
    rfemur rtibia
    rtibia rfoot
    rfoot rtoes
    lowerback upperback
    upperback thorax
    thorax lowerneck lclavicle rclavicle
    lowerneck upperneck
    upperneck head
    lclavicle lhumerus
    lhumerus lradius
    lradius lwrist
    lwrist lhand lthumb
    lhand lfingers
    rclavicle rhumerus
    rhumerus rradius
    rradius rwrist
    rwrist rhand rthumb
    rhand rfingers
  end

#!OML:ASF H:\Bending\Project 1\Capture day 1\Session 1\Subject.ASF
:FULLY-SPECIFIED
:DEGREES
16
root -10.4482 18.0872 -16.3354 -157.117 84.9181 -161.569
lowerback 5.3959 -0.0871339 1.32443
upperback -2.65223 0.107724 1.76726
thorax -5.78743 0.0497756 1.08222
lowerneck -21.6027 -4.73568 -6.42133
upperneck 33.3314 -4.83891 2.79829
head 15.6469 -2.19362 1.41962
rclavicle -1.18028e-014 3.18055e-015
rhumerus -39.1148 -3.01425 -76.4331
rradius 29.0504
rwrist 21.0861
rhand -16.6013 -16.2153
rfingers 7.12502
rthumb 9.62007 -45.9756
lclavicle -1.18028e-014 3.18055e-015
lhumerus -35.7945 10.5901 84.8658
lradius 25.1956
lwrist 14.5397
lhand -31.7199 6.52909
lfingers 7.12502
lthumb -4.97826 36.4506
rfemur 2.97744 -10.2857 16.436
rtibia 2.06736e-014
rfoot -8.39894 -10.4605
rtoes 7.26896
lfemur -9.65552 -15.6752 -11.1308
ltibia 20.3043
lfoot -20.4733 11.7262
ltoes -1.47551
17
root -10.4453 18.0863 -16.3373 -156.774 84.9001 -161.198
lowerback 5.44843 -0.0988844 1.35235
upperback -2.64687 0.0972926 1.79498
thorax -5.8119 0.0442344 1.09667
lowerneck -21.6022 -4.72967 -6.50287
upperneck 33.3183 -4.82916 2.88191
head 15.6459 -2.18808 1.47113
rclavicle 1.68967e-015 5.56597e-015
rhumerus -39.1458 -2.8012 -76.3809
rradius 29.2242
rwrist 20.8486
rhand -16.5902 -15.9674
rfingers 7.12502
rthumb 9.63073 -45.7272
lclavicle 1.68967e-015 5.56597e-015
lhumerus -35.8105 10.5249 84.8308
lradius 25.3304
lwrist 14.7132
lhand -31.7118 6.47568
lfingers 7.12502
lthumb -4.97048 36.3974
rfemur 3.01432 -10.2882 16.4592
rtibia -1.90833e-014
rfoot -8.42974 -10.4476
rtoes 7.64151
lfemur -9.65564 -15.4781 -11.1017
ltibia 20.3712
lfoot -20.3955 11.502
ltoes -1.43066
18
root -10.4428 18.0844 -16.3398 -156.185 84.8579 -160.583
lowerback 5.50028 -0.129267 1.40639
upperback -2.64382 0.0653257 1.83831
thorax -5.83828 0.0275244 1.115
lowerneck -21.6412 -4.71664 -6.58004
upperneck 33.3451 -4.79542 2.93344
head 15.6705 -2.17607 1.51296
rclavicle -7.00716e-015 -4.37326e-015
rhumerus -39.1403 -2.55779 -76.3336
rradius 29.4004
rwrist 20.5879
rhand -16.541 -15.7877
rfingers 7.12502
rthumb 9.67818 -45.5453
lclavicle -7.00716e-015 -4.37326e-015
lhumerus -35.8588 10.5076 84.7708
lradius 25.5091
lwrist 14.838
lhand -31.7107 6.44368
lfingers 7.12502
lthumb -4.96941 36.3654
rfemur 3.04341 -10.3036 16.5204
rtibia -1.74931e-014
rfoot -8.43171 -10.4538
rtoes 7.66915
lfemur -9.69338 -15.2437 -11.032
ltibia 20.4836
lfoot -20.3385 11.1852
ltoes -1.05866
19
root -10.4406 18.0819 -16.3427 -155.508 84.8022 -159.884
lowerback 5.55237 -0.169438 1.47728
upperback -2.64241 0.0221362 1.88566
thorax -5.86648 0.00476544 1.12933
lowerneck -21.7048 -4.6964 -6.62432
upperneck 33.3966 -4.74296 2.9344
head 15.7085 -2.15908 1.5313
rclavicle 5.8393e-016 -6.75868e-015
rhumerus -39.0794 -2.39067 -76.2448
rradius 29.5307
rwrist 20.4371
rhand -16.4492 -15.7089
rfingers 7.12502
rthumb 9.76679 -45.4624
lclavicle 5.8393e-016 -6.75868e-015
lhumerus -35.9293 10.5251 84.6837
lradius 25.7227
lwrist 14.8991
lhand -31.6947 6.43621
lfingers 7.12502
lthumb -4.95395 36.3583
rfemur 3.06566 -10.3271 16.6019
rtibia 1.27222e-014
rfoot -8.39478 -10.4851
rtoes 7.26383
lfemur -9.75771 -14.9849 -10.9411
ltibia 20.6252
lfoot -20.3012 10.8072
ltoes -0.416808
20
root -10.4386 18.0793 -16.3454 -154.952 84.7515 -159.305
lowerback 5.6068 -0.207786 1.54509
upperback -2.63975 -0.0193204 1.92465
thorax -5.89474 -0.0172591 1.13659
lowerneck -21.7714 -4.66723 -6.61722
upperneck 33.4496 -4.67722 2.88174
head 15.7434 -2.1378 1.52053
rclavicle -1.72694e-015 -1.59028e-015
rhumerus -38.9597 -2.36943 -76.0855
rradius 29.5871
rwrist 20.4868
rhand -16.3395 -15.7227
rfingers 7.12502
rthumb 9.87267 -45.4712
lclavicle -1.72694e-015 -1.59028e-015
lhumerus -36.0051 10.5475 84.5784
lradius 25.9582
lwrist 14.9099
lhand -31.6552 6.44958
lfingers 7.12502
lthumb -4.91585 36.3726
rfemur 3.0858 -10.3492 16.6749
rtibia 1.82882e-014
rfoot -8.32347 -10.5355
rtoes 6.53876
lfemur -9.82648 -14.711 -10.8601
ltibia 20.77
lfoot -20.2681 10.4171
ltoes 0.296112
21
root -10.4367 18.0774 -16.3477 -154.677 84.725 -159.001
lowerback 5.665 -0.233955 1.58913
upperback -2.63231 -0.0476482 1.94719
thorax -5.92018 -0.0323905 1.13871
lowerneck -21.8212 -4.62787 -6.55732
upperneck 33.4843 -4.60245 2.78602
head 15.7615 -2.11252 1.484
rclavicle -5.73991e-015 9.93923e-015
rhumerus -38.7991 -2.48415 -75.8627
rradius 29.5797
rwrist 20.7302
rhand -16.2597 -15.792
rfingers 7.12502
rthumb 9.94957 -45.5368
lclavicle -5.73991e-015 9.93923e-015
lhumerus -36.0691 10.5397 84.4723
lradius 26.2023
lwrist 14.9039
lhand -31.5983 6.4765
lfingers 7.12502
lthumb -4.86086 36.4007
rfemur 3.10949 -10.3594 16.7123
rtibia 1.51076e-014
rfoot -8.23312 -10.5908
rtoes 5.74249
lfemur -9.87533 -14.4247 -10.8181
ltibia 20.8914
lfoot -20.2167 10.0651
ltoes 0.810312
